Kill Bill Vol. 2 2004 BluRay 1080p ac3 x264-LoNeWoLf

Encoded by Tequila-Bob a.k.a. bobnjeff a.k.a.LoNeWoLf

Source - NTSC BluRay Disc.

Movie has been tested and is DXVA Compliant


Kill Bill: Vol. 2 (2004) 
  136 min  -  Action | Crime | Thriller   -  16 April 2004 (USA) 
8.0/10 X  Users: 8.0/10 (191,774 votes) 876 reviews | Critics: 292 reviews 
The murderous Bride continues her vengeance quest against her ex-boss, Bill, and his two remaining associates; his younger brother Budd, and Bill's latest flame Elle. 


Director: Quentin Tarantino
Writers: Quentin Tarantino, Quentin Tarantino (character The Bride), and 1 more credit » 
Stars:Uma Thurman, David Carradine , Michael Madsen
 
http://www.imdb.com/title/tt0378194/

Genres:Action | Crime | Thriller 

Rated R for violence, language and brief drug use

Storyline
The murderous Bride is back and she is still continuing her vengeance quest against her ex-boss, Bill, and taking aim at Bill's younger brother Budd and Elle Driver, the only survivors from the squad of assassins who betrayed her four years earlier. It's all leading up to the ultimate confrontation with Bill, the Bride's former master and the man who ordered her execution!

Cast
Cast overview, first billed only: 
  Uma Thurman  ...  Beatrix Kiddo - The Bride, 'Black Mamba'  
  David Carradine  ...  Bill - 'Snake Charmer'  
  Lucy Liu  ...  O-Ren Ishii (archive footage)  
  Vivica A. Fox  ...  Vernita Green (archive footage)  
  Chia Hui Liu  ...  Pai Mei (as Gordon Liu)  
  Michael Madsen  ...  Budd - 'Sidewinder'  
  Daryl Hannah  ...  Elle Driver  
  Michael Parks  ...  Esteban Vihaio  
  Bo Svenson  ...  Reverend Harmony  
  Jeannie Epper  ...  Mrs. Harmony  
  Stephanie L. Moore  ...  Joleen  
  Shana Stein  ...  Erica  
  Caitlin Keats  ...  Janeen  
  Christopher Allen Nelson  ...  Tommy Plympton (as Chris Nelson)  
  Samuel L. Jackson  ...  Rufus  

[img]http://torrent-stats.info/14ab/169bd6ae.png[/img]

See the full size 1920x800 PNG files at the link below

 
http://s1015.photobucket.com/albums/af279/tequila-bob/Kill%20Bill%20Vol2%202004/



Format : Matroska 
File size : 9.82 GiB 
Duration : 2h 16mn 
Overall bit rate : 10.3 Mbps 
Encoded date : UTC 2010-12-26 14:28:01 
Writing application : mkvmerge v4.4.0 ('Die Wiederkehr') built on Oct 31 2010 21:52:48 
Writing library : libebml v1.0.0 + libmatroska v1.0.0 

Video 
ID : 1 
Format : AVC 
Format/Info : Advanced Video Codec 
Format profile : High@L4.1 
Format settings, CABAC : Yes 
Format settings, ReFrames : 4 frames 
Muxing mode : Container profile=Unknown@4.1 
Codec ID : V_MPEG4/ISO/AVC 
Duration : 2h 16mn 
Bit rate : 9 599 Kbps 
Width : 1 920 pixels 
Height : 800 pixels 
Display aspect ratio : 2.40:1 
Frame rate : 23.976 fps 
Color space : YUV 
Chroma subsampling : 4:2:0 
Bit depth : 8 bits 
Scan type : Progressive 
Bits/(Pixel*Frame) : 0.261 
Stream size : 9.01 GiB (92%) 
Writing library : x264 core 98 r1649 c54c47d 
Encoding settings : cabac=1 / ref=5 / deblock=1:-3:-3 / analyse=0x3:0x113 / me=umh / subme=9 / psy=1 / psy_rd=1.00:0.15 / mixed_ref=1 / me_range=32 / chroma_me=1 / trellis=2 / 8x8dct=1 / cqm=0 / deadzone=21,11 / fast_pskip=0 / chroma_qp_offset=-3 / threads=6 / sliced_threads=0 / nr=0 / decimate=1 / interlaced=0 / constrained_intra=0 / bframes=3 / b_pyramid=1 / b_adapt=2 / b_bias=0 / direct=1 / weightb=1 / weightp=2 / keyint=250 / keyint_min=25 / scenecut=40 / intra_refresh=0 / rc_lookahead=60 / rc=2pass / mbtree=1 / bitrate=9599 / ratetol=1.0 / qcomp=0.60 / qpmin=10 / qpmax=51 / qpstep=4 / cplxblur=20.0 / qblur=0.5 / vbv_maxrate=50000 / vbv_bufsize=50000 / ip_ratio=1.40 / aq=1:1.50 / nal_hrd=none 
Language : English 

Audio 
ID : 2 
Format : AC-3 
Format/Info : Audio Coding 3 
Mode extension : CM (complete main) 
Codec ID : A_AC3 
Duration : 2h 16mn 
Bit rate mode : Constant 
Bit rate : 640 Kbps 
Channel(s) : 6 channels 
Channel positions : Front: L C R, Side: L R, LFE 
Sampling rate : 48.0 KHz 
Bit depth : 16 bits 
Stream size : 627 MiB (6%) 
Title : 3/2+1 
Language : English 

Text 
ID : 3 
Format : PGS 
Codec ID : S_HDMV/PGS 
Codec ID/Info : The same subtitle format used on BDs/HD-DVDs 
Language : English , Spanish , Japanese , Korean , Chinese , English , French 

Menu & 19 Chapters





See the full size 1920x800 PNG files at the link below

 
http://s1015.photobucket.com/albums/af279/tequila-bob/Kill%20Bill%20Vol2%202004/


